<?xml version="1.0" standalone="no"?>
<!DOCTYPE svg PUBLIC "-//W3C//DTD SVG 20010904//EN"
 "http://www.w3.org/TR/2001/REC-SVG-20010904/DTD/svg10.dtd">
<svg version="1.0" xmlns="http://www.w3.org/2000/svg"
 width="673.000000pt" height="673.000000pt" viewBox="0 0 673.000000 673.000000"
 preserveAspectRatio="xMidYMid meet">
<metadata>
Created by potrace 1.14, written by Peter Selinger 2001-2017
</metadata>
<g transform="translate(0.000000,673.000000) scale(0.100000,-0.100000)"
fill="#000000" stroke="none">
<path d="M3287 5603 c-18 -13 -31 -26 -29 -28 1 -3 1 -8 0 -12 -2 -12 -5 -45
-7 -69 -1 -20 -8 -22 -98 -28 -219 -15 -491 -87 -683 -180 -47 -22 -88 -42
-91 -44 -3 -1 -16 7 -29 18 -13 11 -19 20 -14 20 5 0 -4 11 -20 25 -37 31 -93
34 -126 5 -13 -11 -19 -20 -14 -20 5 0 2 -5 -7 -10 -14 -8 -15 -16 -6 -55 6
-25 14 -45 19 -45 5 0 7 -4 3 -9 -3 -5 -1 -13 5 -16 12 -7 -5 -35 -21 -35 -12
0 -158 -109 -210 -157 -72 -65 -213 -209 -234 -238 -43 -59 -37 -59 -147 -3
-60 31 -121 71 -151 100 -94 90 -121 64 -123 -122 0 -69 -4 -133 -7 -142 -4
-10 -10 -26 -14 -35 -3 -10 -5 -21 -5 -25 1 -5 -2 -8 -7 -8 -5 0 -17 -19 -26
-42 -9 -24 -22 -54 -28 -68 -6 -14 -11 -29 -11 -35 -2 -25 -36 -13 -65 23 -37
48 -70 61 -72 29 -1 -12 -1 -25 -1 -29 3 -18 -26 -27 -61 -17 -33 9 -77 43
-77 58 0 4 -9 12 -21 19 -27 17 -59 7 -54 -18 3 -14 -3 -22 -20 -26 -35 -9
-62 3 -102 47 -42 45 -70 50 -79 14 -3 -13 -14 -27 -24 -30 -25 -8 -77 20 -85
44 -7 22 -70 43 -70 24 0 -13 -16 -33 -25 -33 -4 0 -31 19 -60 43 -32 27 -61
43 -74 41 -11 -1 -24 -3 -28 -3 -5 -1 -8 -12 -8 -26 0 -19 53 -79 222 -250
123 -124 227 -236 233 -248 5 -12 14 -25 19 -28 4 -4 5 -12 2 -18 -4 -6 -2
-11 3 -11 6 0 11 -11 11 -24 0 -14 4 -27 9 -31 6 -3 9 -13 9 -23 0 -9 9 -42
20 -72 11 -30 26 -75 33 -100 7 -25 13 -47 14 -50 1 -3 6 -20 10 -37 4 -18 11
-33 15 -33 3 0 7 -6 8 -12 1 -15 25 -97 43 -148 21 -60 22 -65 20 -74 -1 -4 2
-13 7 -20 10 -12 26 -67 24 -78 -1 -5 3 -8 9 -8 6 0 8 -8 4 -19 -3 -11 -1 -22
5 -26 13 -8 -1 -32 -56 -95 -68 -76 -92 -94 -207 -150 -62 -30 -110 -59 -108
-65 3 -5 48 -22 100 -38 53 -15 104 -32 113 -37 10 -6 27 -10 38 -10 11 0 20
-4 20 -10 0 -5 6 -10 13 -10 8 0 14 -7 14 -15 0 -8 -4 -15 -9 -15 -12 0 -10
-98 2 -105 6 -4 8 -11 5 -16 -4 -5 -2 -9 4 -9 5 0 12 -8 15 -17 3 -10 23 -29
43 -43 21 -14 44 -31 51 -37 7 -7 17 -13 21 -13 5 0 8 -10 7 -22 -3 -49 92
-178 131 -178 7 0 13 -4 13 -10 0 -10 71 -33 110 -34 19 -1 30 -11 47 -48 14
-29 30 -48 40 -49 86 -5 95 -4 100 8 3 8 12 12 19 9 8 -3 14 -1 14 5 0 11 19
-7 35 -33 26 -43 72 -105 93 -125 13 -13 21 -23 17 -23 -16 0 203 -223 294
-300 30 -25 63 -53 74 -63 11 -9 23 -17 26 -17 3 0 19 -11 34 -25 15 -14 27
-23 27 -20 0 3 11 -2 25 -11 25 -16 36 -64 14 -64 -5 0 -8 -4 -4 -9 3 -5 1
-12 -5 -16 -13 -8 -13 -72 0 -80 6 -4 7 -12 4 -18 -4 -7 -4 -9 1 -5 4 4 13 0
20 -8 8 -11 26 -16 55 -16 37 1 49 6 72 33 15 17 28 35 28 39 0 22 37 14 117
-25 182 -89 482 -170 678 -182 100 -6 115 -13 109 -47 -5 -31 22 -96 41 -96 8
0 15 -4 15 -9 0 -5 18 -7 40 -6 41 2 80 27 80 52 0 7 4 13 9 13 5 0 7 15 6 33
-2 18 -1 38 3 44 4 6 50 13 102 17 134 8 271 35 421 82 94 29 267 98 316 125
33 19 63 16 63 -5 0 -20 55 -67 81 -68 46 -2 58 2 82 28 24 26 36 94 16 94 -6
0 -8 4 -5 9 3 5 -1 14 -9 21 -16 14 -21 50 -6 50 5 0 16 6 23 13 7 6 25 18 39
25 14 8 38 23 52 35 14 12 36 30 49 40 97 75 362 337 341 337 -2 0 2 7 9 15
19 21 29 34 73 95 59 82 58 81 90 60 31 -20 95 -21 119 -1 9 8 21 30 27 51 10
33 17 39 47 45 101 19 182 97 212 202 8 29 21 44 55 65 25 15 58 47 74 73 24
38 28 53 25 98 -4 63 3 76 42 81 16 2 40 8 54 14 14 6 71 23 128 38 120 33
129 50 42 79 -49 16 -175 77 -181 87 -4 5 5 22 19 36 21 23 62 98 68 125 1 4
3 9 4 12 1 3 3 17 5 33 1 15 4 34 8 42 7 20 18 95 21 150 1 25 5 52 8 60 8 19
29 191 31 253 1 26 5 47 9 47 6 0 16 76 20 163 1 26 5 47 9 47 7 0 18 87 18
143 1 23 29 57 155 183 168 168 174 176 167 223 -2 18 -55 5 -83 -21 -15 -14
-28 -23 -28 -20 0 3 -9 -4 -20 -16 -26 -27 -41 -28 -63 -2 -24 28 -38 25 -67
-14 -14 -19 -27 -34 -30 -34 -3 1 -12 -2 -21 -6 -18 -8 -73 10 -65 22 2 4 1
14 -3 21 -11 17 -40 2 -76 -40 -22 -26 -34 -33 -68 -33 -34 -1 -42 3 -45 19
-2 11 -7 24 -12 28 -9 10 -62 -2 -55 -13 3 -4 -2 -10 -10 -14 -8 -3 -15 -12
-15 -19 0 -19 -50 -39 -86 -35 -23 2 -30 9 -32 30 -5 42 -27 40 -70 -8 -43
-47 -72 -57 -72 -25 0 11 -4 22 -9 25 -4 3 -14 26 -21 51 -7 25 -16 45 -20 45
-4 0 -11 11 -14 25 -4 14 -11 25 -16 25 -5 0 -7 6 -4 14 3 8 1 17 -5 21 -7 4
-11 57 -11 145 0 113 -3 142 -16 154 -26 27 -42 20 -135 -55 -71 -58 -217
-132 -220 -111 -3 31 -10 48 -22 57 -7 5 -36 36 -64 67 -28 31 -53 54 -55 52
-3 -2 -11 7 -18 21 -7 14 -16 25 -20 25 -4 0 -18 10 -32 23 -58 53 -117 100
-168 135 -30 20 -63 45 -74 55 -11 9 -23 17 -28 17 -9 0 9 36 30 58 19 22 14
62 -14 99 -21 28 -31 33 -67 33 -47 0 -97 -36 -97 -70 0 -28 -27 -25 -91 9
-115 63 -353 142 -514 172 -67 12 -75 13 -200 24 -49 4 -92 10 -95 12 -3 3 -5
17 -5 31 -2 101 -84 150 -158 95z"/>
</g>
</svg>
